PathFileType	4	(X/Y/Z)	13_1_35_p1_0-314_filt_butterworth.trc
DataRate	CameraRate	NumFrames	NumMarkers	Units	OrigDataRate	OrigDataStartFrame	OrigNumFrames
60.0	60.0	5	27	m	60.0	196	314
Frame#	Time	RHip			RKnee			RAnkle			RBigToe			RSmallToe			RHeel			LHip			LKnee			LAnkle			LBigToe			LSmallToe			LHeel			Neck			Head			Nose			RShoulder			RElbow			RWrist			RThumb			RIndex			RPinky			LShoulder			LElbow			LWrist			LThumb			LIndex			LPinky			
		X1	Y1	Z1	X2	Y2	Z2	X3	Y3	Z3	X4	Y4	Z4	X5	Y5	Z5	X6	Y6	Z6	X7	Y7	Z7	X8	Y8	Z8	X9	Y9	Z9	X10	Y10	Z10	X11	Y11	Z11	X12	Y12	Z12	X13	Y13	Z13	X14	Y14	Z14	X15	Y15	Z15	X16	Y16	Z16	X17	Y17	Z17	X18	Y18	Z18	X19	Y19	Z19	X20	Y20	Z20	X21	Y21	Z21	X22	Y22	Z22	X23	Y23	Z23	X24	Y24	Z24	X25	Y25	Z25	X26	Y26	Z26	X27	Y27	Z27	
196	3.2666666666666666	0.27338561131021494	0.8501121457278704	0.6642306689189351	0.2601247691133253	0.9616236324026903	1.0471261304116917	0.2627037006390388	1.1509028917119264	1.377896205371035	0.24233897895039858	1.0102675514982125	1.4503877976917605	0.30316138618368055	1.0501282332191384	1.4400625450275941	0.2433136854953124	1.2932411936516839	1.4413557091893636	0.0626203957967555	0.8725684827852105	0.6666596299234343	0.06964218528192762	1.0500464762930548	1.0615764533964382	0.08162843529867457	1.2362446681502306	1.402882178329106	0.09357222621399176	1.02659418549608	1.4620163800355963	0.0392432186440507	1.0966073080314018	1.4599526883453362	0.1070222154512899	1.3124664495508869	1.4277025530879417	0.14263868291268875	0.4916430180640861	0.2603402614283752	0.1223210824487641	0.25466690922357493	0.07404036438442924	0.10716519949272328	0.2591416001492644	0.22609626651039924	0.3021886964559378	0.47472498792237394	0.28495213209933967	0.38637836815747484	0.6518872207391906	0.4929415328584613	0.2751655497175581	0.6243299156346664	0.6698897158122656	0.18906516701285006	0.5926823184720759	0.7302620478883877	0.20359700635622474	0.597892165104108	0.7493872092370064	0.23241659771807835	0.6174752421694183	0.7619583440574638	-0.01043147393486662	0.5668656721938473	0.27567238123088766	-0.057671893395433646	0.7872146328041708	0.40973222073741156	-0.03128558798350668	0.6060004057001478	0.5415435096846279	0.011368247374715193	0.5190800090100535	0.5790840205631873	-0.007152278198020044	0.4658908355744107	0.5996866502412342	-0.023832080654006858	0.5442009225075599	0.6135305426969058
197	3.283333333333333	0.27431557555768493	0.8471306673041807	0.6641310661942444	0.258978431686756	0.9619718212790265	1.0466645162933101	0.2623821354407563	1.1442459340433384	1.376449521603623	0.23999310891363304	1.0074698156741875	1.4496752008131946	0.3026282611818887	1.0491965891466002	1.439537314465921	0.24249089889718323	1.280133340568694	1.4374000982984116	0.06312475747547686	0.873371140190103	0.6668112394765354	0.06910741484007145	1.0504087910960893	1.0595978850873975	0.08150256982584644	1.2358312138031768	1.4016815802467049	0.09304907722731122	1.0265152375378104	1.4617427039787136	0.03990435354673715	1.0969990342155143	1.4605261040895963	0.10882534969757218	1.3067154362370248	1.4250273204281694	0.14168519688352532	0.4880841872035324	0.2610607221287793	0.12072937270437742	0.2576430887266198	0.07118199982661313	0.10704693171470614	0.2591985561308893	0.22539810390191012	0.30068919177312436	0.4743491756182391	0.2852531809253235	0.3880810989936115	0.6540310431041801	0.4939785277087217	0.2819309175867922	0.6502033797993956	0.672846316411479	0.1936695873593662	0.6320066207989303	0.7401784079441699	0.20859524542733754	0.631518862059017	0.7586977075659073	0.2378197805679232	0.6330875045227728	0.7671808760438326	-0.01258537894143529	0.5581496243002325	0.2776936019806624	-0.05729672899302431	0.783799330980157	0.4271904417233764	-0.03347249499369804	0.5950606062110713	0.5389323004423315	0.008859290105018978	0.5001962664170732	0.5648901395616146	-0.0127054850950989	0.4415000084030174	0.5884322171810932	-0.02385416488195513	0.5039763696882709	0.610337320970247
198	3.3	0.2746731890787288	0.8411476882551872	0.6658384515215403	0.25864337150730654	0.9624735354100795	1.0466055873593025	0.2620691153882476	1.136941337931668	1.3762132950949286	0.2384682786648007	1.0062768743581514	1.449696558636334	0.3028458901283018	1.0491869688702367	1.440266385106184	0.24142284910796527	1.270016773194233	1.4354374370326706	0.06383173952874296	0.8731076070651231	0.6686533713668578	0.06893461929518442	1.050521622866566	1.0587296053446935	0.08145635394591864	1.2357379123009515	1.4011665432197322	0.09302862403313854	1.0265483419360217	1.4616388324204594	0.041359855409593964	1.0973458821216102	1.4604215518992183	0.10988348765055322	1.305228995066636	1.4237225303507652	0.14087115606314446	0.48528850506788546	0.2616650347614433	0.1191268890786258	0.25964091726575167	0.06880594748276761	0.10616383217468195	0.25936780282185606	0.2250859711682965	0.2994657229605987	0.47419238235887096	0.28555149062660695	0.3902449444790773	0.6564328151845613	0.49381148116682244	0.2863777928241665	0.6641707170418578	0.6729714168249608	0.1931031331282062	0.6605431101434034	0.7427536376324165	0.20743015645381307	0.6552348320347386	0.7596652745900896	0.23849434826350807	0.6409665187813673	0.7673936289880827	-0.013776531057394127	0.5508914576051409	0.27913058344549035	-0.05522785890274277	0.7776335838651387	0.44237055954683957	-0.035198560384808376	0.5844070944496934	0.5317333023911385	0.004219886183046094	0.4766336400772022	0.5448311606091493	-0.01775698111323033	0.4216420882638362	0.5708256494158157	-0.02256992516951636	0.4670209632738776	0.6014848586525265
199	3.316666666666667	0.27488919729321487	0.8385358264312605	0.6674821406948512	0.25898317909192314	0.9645808136452355	1.0471839570214054	0.26207505034888573	1.1302916019595086	1.3763085201241023	0.2388330692926408	1.0055942977524441	1.4498130946904229	0.3036806599092088	1.04887273939178	1.4412229520111897	0.24048110177654594	1.2644687100334189	1.4343886919465798	0.06410649260284423	0.8730315960467729	0.6697349495738175	0.06893363192965728	1.0505500254086684	1.0584149817006465	0.08147822382614954	1.2358744883676394	1.401141144561946	0.09352172622443983	1.0266415704771799	1.4617720823759777	0.0427184043129652	1.0974931648503408	1.4597487776368137	0.11028927162479664	1.306183424012187	1.423441650230154	0.14046464675106726	0.48418181952802974	0.2619545610310984	0.11777890221872452	0.2594516398639512	0.06803278614121354	0.10416746388966022	0.2597657278152072	0.2249826895865672	0.2989010664605591	0.47415308109261173	0.2857270077692658	0.39236027364710896	0.659792767188057	0.4918750243395385	0.28742625846316733	0.6707669385462013	0.6724255999010998	0.18994909077411	0.6766382746311567	0.7404403565739915	0.20332953469203938	0.6702479156917696	0.755811809567568	0.23722621513091782	0.6444951759062213	0.7654767823588816	-0.013730868715179072	0.5505504596750864	0.2798326163920932	-0.0522432783310431	0.7697503724961967	0.45144740547371054	-0.03528251097112941	0.5743649732996372	0.5207684465346596	-0.00018339299370254353	0.4536004254306333	0.5232827808388049	-0.020648817595943277	0.4036652036805851	0.5501336404463295	-0.019117456365715928	0.4400591142774358	0.5886574607266521
200	3.333333333333333	0.27533397419975164	0.8423169037559763	0.6683987748773166	0.2598201526243261	0.9709167606586079	1.0490662402862923	0.2624064409563509	1.1295187893161485	1.3771772569215444	0.24122836955143862	1.0049586795486924	1.4497508092196771	0.30517263298382835	1.0482828713818635	1.441757580505049	0.24041519693725477	1.2658115624562265	1.4340215035846993	0.06389365563189493	0.8733198062055267	0.6693845908671817	0.06889904676152937	1.0506128122992382	1.05790927484894	0.0815031915415122	1.235981280535678	1.4012156206131647	0.09504244236291405	1.026674015565086	1.4618429071604588	0.043578653233212396	1.095865931751499	1.458805625605259	0.11036830833597362	1.3075894826463512	1.4235163900577155	0.14036971684596383	0.48417758444002196	0.26195415644675774	0.11669387996702121	0.2569213852464432	0.06863777977922418	0.1016553615680185	0.26017944773760737	0.224673867915379	0.2988252320969883	0.47414585017821886	0.28569391888370343	0.39361448621805745	0.6651772112961285	0.48872764716324396	0.2853223993020287	0.6709798729641991	0.6713273219416698	0.1874235975384304	0.6817591830520444	0.7344693039628918	0.1999923572427003	0.6759626475960343	0.7491146034322536	0.2358190359627639	0.6457792659582084	0.7626323796845691	-0.012875975049440904	0.5559031109034388	0.2800758902264904	-0.049411647768558185	0.7647830238363271	0.4542613476074047	-0.0330526442705414	0.5655934352744159	0.5085582986491303	-0.0013396305908665712	0.4376890116020703	0.5045404169474121	-0.02024876390554269	0.38723712042586944	0.5306826205635962	-0.013007999959975447	0.4261864899423149	0.5752179522737921
